<svg width="60" height="60" fill="none" xmlns="http://www.w3.org/2000/svg"><path d="M29.884 10.173c-11.094 0-20.12 9.026-20.12 20.12 0 11.093 9.027 20.118 20.12 20.118 11.094 0 20.12-9.025 20.12-20.119 0-11.093-9.026-20.119-20.12-20.119zm0 38.082c-9.905 0-17.963-8.058-17.963-17.963 0-9.905 8.058-17.963 17.963-17.963 9.905 0 17.962 8.058 17.962 17.963 0 9.905-8.057 17.963-17.962 17.963z" fill="#EE58B6"/><path d="M34.968 27.024l-4.34 4.34V15.927a1.078 1.078 0 00-2.156 0v18.038c0 .071.007.142.021.212.006.03.018.059.027.089.01.037.02.076.035.113.015.035.035.068.054.102.014.028.027.057.045.084.079.118.181.22.3.3.022.014.046.024.068.036.039.022.076.044.117.062.032.013.066.02.1.03.033.011.066.024.1.03a1.088 1.088 0 00.422 0c.035-.006.068-.019.102-.03.033-.01.066-.017.099-.03.041-.018.08-.04.119-.063.022-.013.044-.022.066-.036a.999.999 0 00.167-.137l6.179-6.179a1.078 1.078 0 00-1.525-1.525z" fill="#EE58B6"/><path d="M29.884 5.407C16.163 5.407 5 16.571 5 30.293s11.163 24.885 24.884 24.885c13.722 0 24.886-11.163 24.886-24.885 0-13.722-11.164-24.886-24.886-24.886zm0 47.614c-12.532 0-22.728-10.196-22.728-22.729 0-12.532 10.195-22.729 22.729-22.729 12.533 0 22.728 10.197 22.728 22.73 0 12.532-10.196 22.728-22.729 22.728z" fill="#EE58B6"/></svg>