<svg width="322" height="307" fill="none" xmlns="http://www.w3.org/2000/svg"><path fill-rule="evenodd" clip-rule="evenodd" d="M166.268 266.416c55.095 0 62.905-24.511 71.259-29.015 8.354-4.504 3.161-13.543 8.639-20.361 8.752-10.89 14.056-5.278 16.952-19.405 2.897-14.128-2.369-18.125-2.369-30.738 0-25.271 12.106-37.233-3.353-50.455-15.46-13.222-41.275-11.662-66.808-11.662-47.391 0-75.782-64.965-138.99-45.475-21.783 6.717-19.376 15.87-14.59 48.218 2.079 14.047-13.614 31.907-10.891 47.87 4.973 29.155 18.106 25.2 42.887 44.884 4.157 3.303 10.22 3.268 14.752 6.655 7.599 5.679 8.087 14.508 22.292 20.463 22.905 9.603 20.962 39.021 60.22 39.021z" fill="#EE58B6"/><ellipse cx="60.941" cy="191.159" rx="13.93" ry="13.099" fill="#fff"/><path fill-rule="evenodd" clip-rule="evenodd" d="M55.478 144.456c-2.375-5.93-.3-9.483 1.03-14.122 1.11-3.874 9.795-10.168 13.793-3.606 1.176 1.931.704 3.756 3.274 5.453 6.222 4.107 2.828-4.414 3.059-6.569.113-1.05-.775-3.474-.444-4.488.346-1.064 2.195-2.576 2.195-4.781 0-2.206-3.76-3.056-4.81-3.598-9.328-4.816-15.26-12.86-12.304-16.942 4.12-5.688 20.262 3.261 25.112 4.082.063.01.929-4.511 1.636-5.547 1.416-2.072 2.98-4.082 4.847-5.76.836-.75 1.97-1.214 3.083-1.365 3.333-.45 6.744-.818 10.082-.41 1.18.143 8.206-7.989 10.946-10.612 21.019-20.125 63.155 4.4 40.187 37.724-4.221 6.125-9.619 8.073-10.317 10.238-1.548 4.808 8.2 4.176 12.33 4.69 7.054.877 10.531 4.501 6.152 10.712-2.728 3.87-18.733 3.672-25.744.874-2.602-1.038-5.818-5.579-8.277-1.854-1.695 2.566-8.301 8.011-15.389 11.092-3.199 1.39-6.842.552-9.572 1.794-3.843 1.747-15.186 9.085-19.964 9.084-4.812-.002-11.038-5.792-11.758-6.172-1.098-.579-9.592-2.238-13.788-8.713-1.268-1.958-4.49.967-5.359-1.204z" fill="#fff"/><ellipse cx="137.174" cy="110.077" rx="1.476" ry="1.454" fill="#FFB61D"/><circle cx="126.37" cy="107.041" r="1.433" fill="#FFB61D"/><circle cx="230.75" cy="105.813" r="19.443" fill="#fff"/><ellipse cx="169.954" cy="216.116" rx="56.498" ry="48.289" fill="#fff"/><path fill-rule="evenodd" clip-rule="evenodd" d="M122.056 242.446l.634.459c-1.431 1.285-3.584-.312-4.791-1.809-1.941-2.406-3.911-4.964-4.501-7.999-.336-1.727-.202-3.506-.066-5.26l.547-7.073c.243-3.134.486-6.274 1.029-9.37a49.28 49.28 0 0110.607-22.897l.054-.066c.961-1.154 2.011-2.414 1.992-3.911-.039-3.166 1.784-6.124 4.178-8.197 2.394-2.072 5.325-3.402 8.211-4.704 1.308-.59 3.015-1.118 4.029-.103 2.084 2.088 5.563.758 8.316-.302a30.98 30.98 0 0110.612-2.062l.319-.005c2.175-.031 4.622-.066 5.949-1.751.845-1.073 2.46-1.01 3.816-.848l9.324 1.115c.712.085 1.566.28 1.791.961.602 1.828 2.727 2.573 4.569 3.129 6.549 1.974 12.951 4.655 18.511 8.64 5.56 3.985 10.259 9.344 12.753 15.714-4.055-5.541-8.214-11.187-13.84-15.122-1.61-1.126-3.323-2.099-5.061-3.015-4.103-2.163-8.373-4.027-12.809-5.381-20.592-6.285-44.411-.456-59.774 14.628-2.227 2.187-4.316 4.596-5.579 7.451l1.669.518c-2.645 1.182-4.61 3.772-5.035 6.638a13.047 13.047 0 014.377-4.491c-.514 1.717-1.85 3.096-3.16 4.448-1.67 1.723-3.297 3.402-3.124 5.679.793-2.081 2.79-3.651 4.998-3.931-3.503 3.423-7.262 7.44-7.15 12.336a15.256 15.256 0 016.121-6.817l-3.849 5.173c-1.456 1.956-2.99 4.192-2.657 6.608a16.645 16.645 0 015.238-5.69 20.898 20.898 0 01-4.355 6.361 9.247 9.247 0 004.764-2.05c-.566.79-1.075 1.681-1.094 2.652-.019.971.61 2.013 1.571 2.152.291-.65 1.203-.925 1.805-.543-1.824 1.775-1.843 5.063-.039 6.858a2.21 2.21 0 011.716-1.715c-1.345 2.352-1.587 5.306-.643 7.846a6.461 6.461 0 012.219-3.701 22.928 22.928 0 01-4.192 9.447zm-.796-1.087c1.138-.012 1.847-1.286 1.966-2.419.142-1.355-.195-2.709-.529-4.03l-1.981-7.836c-.373.118-.416.524-.462.949-.038.363-.079.739-.327.963a1.998 1.998 0 01-.135-2.247c.427-.686.148-1.647-.458-2.181-.606-.535-1.448-.716-2.256-.743-.436-.014-.9.019-1.257.27-.358.252-.545.786-.292 1.141a11.18 11.18 0 011.746 3.785c.173.651.35 1.319.826 1.783.368.358.462.905.536 1.413l.606 4.117c.11.75.22 1.514.094 2.261-.126.747-.53 1.487-1.207 1.826l2.163.736c.314.107.635.215.967.212zm23.579-67.486c-.426.09-.784-.284-1.089-.604l-.035-.037c-.313-.327-.851-.612-1.18-.302a54.36 54.36 0 01-12.924 9.016c-.856.428-.971 1.581-.972 2.538 0 .319.306.768.505.518.973-1.218 2.237-2.164 3.487-3.096 3.516-2.621 7.075-5.268 11.106-6.996.489-.21 1.062-.506 1.102-1.037zm38.589-4.062c-.217-.511-.836-.695-1.382-.798-1.486-.28-2.998-.407-4.509-.534-2.076-.174-4.148-.347-6.145-.917-.64-.183-1.187.466-1.538 1.031a25.819 25.819 0 013.17-.135c1.841.033 3.673.263 5.5.492.929.116 1.864.234 2.754.522.104.034.209.07.314.106.608.208 1.236.424 1.836.233zm-19.657 7.848c.421.096.822.41.885.838.062.426-.229.841-.6 1.058-.372.217-.812.277-1.239.334l-1.285.17c-.129.017-.261.035-.373.102-.323.191-.301.709-.037.976s.669.333 1.045.332c1.748-.003 3.402-1.261 3.936-2.925.127-.396.194-.835.037-1.219a1.629 1.629 0 00-.361-.514c-.687-.697-1.711-1.004-2.688-.935-.976.069-1.905.485-2.699 1.056-.381.274-.744.595-.96 1.012-.216.416-.263.944-.021 1.346.093.153.235.289.412.318.176.029.38-.085.402-.263.061-.493.421-.91.851-1.161.429-.251.924-.362 1.412-.459.423-.085.862-.162 1.283-.066zm-34.447 24.416c.481-2.841 2.775-5.15 5.45-6.221 1.474-.589 3.161-.848 4.644-.28.366.141.72.334.983.624.248.272.404.616.521.965.754 2.234-.011 4.817-1.629 6.532-1.618 1.714-3.974 2.614-6.325 2.782-.754.054-1.563.024-2.185-.405-.622-.428-.931-1.379-.452-1.963.227.011.349.213.474.42.062.103.124.206.201.289.261.281.693.301 1.076.285 1.667-.07 3.36-.484 4.717-1.455 1.357-.971 2.332-2.557 2.304-4.226-.009-.537-.126-1.087-.431-1.531-.5-.727-1.445-1.055-2.326-.997-.881.058-1.706.449-2.456.914-.987.613-1.899 1.382-2.517 2.365-.619.983-.921 2.198-.66 3.33-.231.417-.918.334-1.202-.049-.284-.384-.266-.909-.187-1.379zm15.356 23.414c-1.22.785-2.232 2.013-2.42 3.452-.152 1.163.238 2.322.622 3.431.3.866.61 1.75 1.182 2.465 1.032 1.293 2.74 1.828 4.373 2.091.445.072 1.12-.129.961-.551a6.217 6.217 0 01-4.542-2.14 6.217 6.217 0 01-1.42-4.817c.049-.36.131-.718.282-1.048.306-.667.875-1.18 1.492-1.579a7.248 7.248 0 014.517-1.123c1.517.131 3.033.796 3.96 2.005.926 1.21 1.147 2.994.33 4.279-.133.209-.23.578.013.622 1.317-.709 2.047-2.273 1.973-3.766-.073-1.493-.862-2.891-1.945-3.921-.6-.57-1.309-1.051-2.113-1.245-1.06-.255-2.169.008-3.223.286-1.403.369-2.823.774-4.042 1.559zm59.909 1.855a30.847 30.847 0 00-13.888-1.779c-1.964.202-3.934.603-5.7 1.487-3.331 1.667-5.713 5.1-6.11 8.804-.396 3.704 1.206 7.563 4.109 9.897 1.101.885 2.351 1.548 3.602 2.212.855.453 1.71.906 2.519 1.431.231.221-.289.442-.593.344-2.83-.914-5.577-2.303-7.596-4.486-2.455-2.656-3.652-6.427-3.179-10.013.474-3.586 2.61-6.917 5.67-8.845 2.421-1.524 5.315-2.167 8.174-2.27 2.859-.103 5.71.306 8.537.744 1.765.273 3.836.798 4.455 2.474zm-46.414 5.527c-.201-.459-1.006-.579-1.153-.1-.936 3.045-3.907 5.347-7.09 5.493-.719.033-1.439-.033-2.155-.103-1.544-.149-3.136-.326-4.488-1.086-1.944-1.093-3.113-3.337-3.127-5.567-.014-2.23 1.044-4.397 2.65-5.944-.223-.624-1.18-.323-1.655.139-2.634 2.561-3.086 6.98-1.238 10.155 1.848 3.174 5.722 4.954 9.373 4.55 3.651-.404 6.948-2.848 8.645-6.106.231-.444.438-.972.238-1.431zM135.31 248.29a15.333 15.333 0 00-.164 7.007c.219 1.034.243 1.604.248 1.711v.011l.001.007.001-.018c.004-.107.03-.679.254-1.715.499-2.31.38-4.751-.34-7.003zm3.16 1.38c-.845 1.771-.74 3.963.27 5.646.227.378.399.685.526.911.171.305.26.464.291.454.033-.012-.003-.225-.078-.672l-.107-.653-.902-5.686zm2.379 2.262a3.583 3.583 0 00.674 3.342c.786.922 1.042 1.218.803.03a8.699 8.699 0 00-1.477-3.372zm68.853-12.863c-1.079 4.331-4.525 7.612-7.866 10.572.152.329.646.211.962.033 3.385-1.905 6.123-5.009 7.373-8.687 1.249-3.677.939-7.902-1.034-11.247-.165-.281-.376-.58-.696-.643-.32-.062-.689.309-.501.575 1.896 2.685 2.556 6.207 1.762 9.397zm-48.659-39.106c-.008-.685.002-1.427.415-1.973.57-.752 1.651-.831 2.594-.844.421-.006.847-.011 1.257.086.872.207 1.567.851 2.186 1.5.137.143.283.32.249.516-.042.243-.346.354-.587.304a1.602 1.602 0 01-.449-.192 2.882 2.882 0 00-.22-.115c-.868-.398-1.887.038-2.666.589-.122.087-.255.198-.258.348-.003.151.126.267.248.357a5.302 5.302 0 003.697.979c.31-.036.674-.149.755-.451.031-.118.019-.256.007-.39-.02-.224-.038-.435.15-.513.098-.04.209-.011.311.019.702.204 1.522.532 1.658 1.25.04.207.012.424-.054.624a1.732 1.732 0 01-1.343 1.143c-.271.043-.547.019-.821-.004a28.814 28.814 0 01-2.136-.237 14.52 14.52 0 01-3.766-1.147c-.414-.191-.846-.426-1.056-.832-.159-.308-.167-.67-.171-1.017zm26.688-16.895a3.728 3.728 0 00-2.599-2.294c-.362-.085-.772-.106-1.079.104-.308.21-.414.722-.12.952.284.223.112.746-.235.845-.347.099-.721-.136-.895-.453-.173-.317-.192-.693-.194-1.054-.002-.482.042-1.02.398-1.345.135-.123.304-.203.472-.278.694-.31 1.46-.573 2.202-.407.706.159 1.269.68 1.762 1.211.404.435.785.89 1.144 1.364.315.417.619.862.737 1.371.119.51.017 1.101-.377 1.445-.385.338-.978.366-1.446.158-.413-.184-.766-.589-.735-1.04.031-.451.585-.826.965-.579zm3.727 31.735c1.036-.03 2.001-.828 2.225-1.839.136-.616-.032-1.347-.568-1.678-.392-.242-.885-.225-1.344-.195-.636.041-1.296.096-1.849.414-.553.317-.963.975-.79 1.589.281.997 1.29 1.739 2.326 1.709zm.133-1.495c-.2.054-.486.002-.504-.204-.007-.086.039-.167.092-.235.294-.382.855-.53 1.299-.344a1.35 1.35 0 01-.887.783zm.535-15.328c-.169-.389.158-.843.555-.992.319-.12.664-.107 1.007-.095l.255.008c.424.005.893-.066 1.168-.389.097-.114.163-.281.089-.411-.077-.136-.26-.16-.416-.168-1.081-.056-2.358-.023-2.982.863-.134.19-.462.126-.587-.07-.125-.197-.097-.454-.025-.675.255-.794.988-1.371 1.789-1.602.8-.232 1.66-.159 2.473.025.274.062.559.144.759.341.159.157.248.371.306.586.277 1.03-.132 2.209-.987 2.846s-2.101.692-3.009.132c-.162-.099-.319-.224-.395-.399zm-3.707 18.191c.502.601 1.097 1.149 1.819 1.455 1.458.619 3.322.047 4.183-1.283.313-.485.453-1.224-.01-1.568-.742 1.56-2.894 2.248-4.404 1.409a3.849 3.849 0 01-.791-.595c-1.086-1.039-1.652-2.737-1.015-4.098.207-.444.526-.827.875-1.171.761-.751 1.849-1.366 2.864-1.032l.126.045c.142.052.285.105.434.096.194-.011.396-.184.347-.372a.443.443 0 00-.085-.149c-.628-.799-1.859-1.046-2.746-.55-1.056.59-2.129 1.284-2.69 2.355-.914 1.744-.168 3.946 1.093 5.458zm16.817-26.894c-.046.067-.035.159-.024.248.014.105.026.205-.06.247-.316.156-.695.14-1.031.037-.92-.282-1.537-1.126-2.057-1.935-.304-.473-.607-.976-.656-1.536-.049-.561.237-1.192.777-1.35.602-.177 1.192.271 1.66.688.529.47 1.069.955 1.396 1.583.327.627.399 1.438-.005 2.018zm-1.999-2.099c.13.126.201.295.272.464.07.167.14.334.266.46.16.159.402.231.623.183a11.265 11.265 0 00-1.427-1.779c-.143.043-.155.255-.069.377.052.074.125.128.198.183.047.035.095.071.137.112zm-78.719 57.811c-.051.84.013 1.813.685 2.319.224-.125.209-.445.181-.7-.174-1.57.313-3.083.803-4.606.351-1.09.704-2.185.817-3.31.033-.326-.054-.773-.382-.786-.246-.009-.404.25-.503.475a19.35 19.35 0 00-1.601 6.608zm65.193-30.286c.758.336 1.599.678 2.393.437.315-.096.596-.278.873-.458-.002.464-.401.853-.845.986-.445.132-.923.061-1.376-.037-.503-.109-1.119-.418-1.045-.928zm-59.983 38.71c.193-.345.226-.754.255-1.148l.229-3.139c.112-1.541.225-3.088.124-4.629-.013-.195-.032-.4-.146-.558-.113-.158-.353-.243-.508-.125-.114.086-.143.243-.163.385a41.57 41.57 0 00-.397 5.381c-.012 1.305.048 2.653.606 3.833zm-3.431-2.699c-.201.17-.536.021-.647-.218-.111-.239-.066-.518-.019-.777a168.677 168.677 0 011.69-8.088.464.464 0 01.077-.191c.165-.205.5.001.618.237.289.579.15 1.269.006 1.899l-1.552 6.769c-.031.135-.068.28-.173.369zm5.375.121c-.087 1.016.066 2.036.218 3.044.054.36.312.837.637.673l.632-6.761c.026-.275.043-.581-.127-.798-.171-.217-.603-.208-.657.063l-.467 2.318c-.097.484-.194.969-.236 1.461zm65.295-20.724c-1.8-.927-3.991-1.292-5.861-.516-1.397.58-5.345 3.085-5.87 6.296-.352 2.15-.348 4.346.404 6.421l.121.326c.224.588.938 1.263 1.337.777a8.677 8.677 0 01-.583-6.986 8.675 8.675 0 014.833-5.077c.469-.192.958-.343 1.463-.391 1.02-.096 2.038.234 2.949.701 1.963 1.006 4.395 2.679 5.33 4.677.901 1.926 1.564 4.223.749 6.187-.815 1.964-6.17 3.385-6.17 3.385l.592 1.081s2.998-.591 4.829-1.925c7.686-5.597-2.401-14.069-4.123-14.956zM61.102 202.472c-2.718.291-5.597-.338-7.72-2.061-1.503-1.22-2.559-2.918-3.3-4.707a18.138 18.138 0 01-1.36-6.125c-.035-.79-.016-1.596.216-2.352.382-1.245 1.303-2.245 2.243-3.146 2-1.918 4.35-3.668 7.092-4.071 1.868-.275 3.769.099 5.597.57 1.436.37 2.87.805 4.162 1.534 2.855 1.609 4.833 4.678 5.119 7.943.286 3.264-.066 5.427-4.471 9.483-2.29 1.494-4.86 2.64-7.578 2.932zm4.794-10.247c-.441.139-.88.385-1.336.305-.93-.164-1.096-1.439-.89-2.361.591-2.637 2.43-4.966 4.857-6.153-.55-.997-2.009-1.071-3.042-.591-1.032.479-1.84 1.342-2.838 1.889-.497.271-1.086.464-1.626.295-.89-.279-1.23-1.444-.938-2.329.291-.886 1.018-1.547 1.716-2.164a14.7 14.7 0 00-7.183 2.178c-1.684 1.042-3.282 2.751-3.059 4.719a12.585 12.585 0 014.76-2.382c.368-.094.83-.141 1.06.16.173.229.123.557.012.822-.554 1.313-2.182 1.754-3.192 2.759-.133.132-.26.285-.292.469-.063.361.281.691.643.751.362.061.725-.071 1.068-.201l2.138-.806c.516-.195 1.128-.381 1.587-.075.475.317.52 1.036.251 1.54-.268.503-.76.841-1.234 1.158l-3.427 2.297c-.956.641-2.027 1.505-1.936 2.652.085 1.08 1.274 1.815 2.355 1.745 1.081-.069 2.033-.73 2.83-1.463.799-.733 1.52-1.57 2.446-2.132.605-.366 1.468-.569 1.96-.061.379.393.342 1.025.2 1.552a5.482 5.482 0 01-2.95 3.496 9.695 9.695 0 003.556.149c.674-.097 1.371-.284 1.858-.759.487-.476.676-1.312.254-1.846-.63-.796-.606-1.96-.203-2.892.403-.932 1.122-1.684 1.826-2.415-.201-.416-.79-.444-1.231-.306zm5.383 1.806c.633-1.463.656-3.119.496-4.705-.178-1.755-.79-3.761-2.442-4.376-2.423 1.005-4.292 3.248-4.845 5.812-.046.216-.082.447.002.651.085.203.337.352.532.249.67-.35 1.494-.55 2.175-.221.68.329 1.012 1.355.46 1.873-.608.571-1.234 1.166-1.563 1.934-.328.768-.28 1.762.338 2.324.465.422.466 1.25.002 1.673 1.319-.385 2.258-1.519 3.113-2.594.654-.822 1.315-1.656 1.732-2.62zM56.1 186.463a31.47 31.47 0 00-3.981 1.99c-.304.18-.611.37-.833.645-.3.37-.414.854-.507 1.322-.3 1.511-.454 3.138.18 4.541.203.448.48.858.755 1.265.082.121.174.249.313.29.14.04.324-.072.291-.214-.1-.435.23-.845.555-1.152 1.907-1.795 4.477-2.826 6.192-4.806-.26-.308-.754-.163-1.125-.004a19.76 19.76 0 01-2.724.935c-.479.126-1.013.229-1.45-.004-.64-.341-.744-1.275-.406-1.917.338-.642.98-1.056 1.6-1.433.62-.376 1.27-.77 1.642-1.392-.067-.178-.327-.139-.502-.066zm4.694 12.026c.606-.487 1.26-1.061 1.327-1.836.034-.405-.226-.9-.63-.862a.854.854 0 00-.346.138c-1.762 1.053-2.922 3.112-4.91 3.624a9.774 9.774 0 001.747.59c.178.042.364.079.543.041.21-.043.384-.18.55-.314l1.719-1.381zm1.639-16.832l-1.177 1.301c-.31.344-.644.797-.471 1.227.127.317.504.477.844.45.34-.026.65-.2.935-.387 1.017-.667 1.933-1.576 3.12-1.843l-2.469-.899c-.171-.063-.362-.125-.53-.055a.735.735 0 00-.252.206zm15.311-51.817c-.103 2.055-1.689 4.281-3.732 4.038-.923-1.067-1.645-2.391-2.358-3.699-1.37-2.514-2.71-4.97-5.377-5.436-2.621-.458-5.061 1.469-6.693 3.57a21.723 21.723 0 00-4.373 10.551c-.283 2.247.639 5.363 2.89 5.116 2.572-.282 4.4 1.741 6.26 3.798 1.723 1.904 3.471 3.838 5.86 4.002 2.845.194 5.168 1.898 7.52 3.623 1.571 1.152 3.155 2.314 4.915 3.041 3.31 1.368 7.129 1.103 10.508-.085 3.38-1.188 6.388-3.234 9.235-5.409l.149-.114c1.554-1.188 3.18-2.432 5.113-2.694 9.88-1.339 19.07-7.134 24.536-15.473 7.749 6.194 18.583 8.311 28.094 5.49 1.614-.479 3.238-1.121 4.434-2.305 1.197-1.183 1.876-3.022 1.288-4.599-.644-1.724-2.566-2.648-4.393-2.87-1.002-.122-2.012-.086-3.022-.05-.833.03-1.666.06-2.496.001-5.024-.355-9.207-3.82-13.011-7.121 5.512-1.691 9.981-5.937 12.931-10.89 2.951-4.952 4.532-10.594 5.734-16.233.632-2.967 1.102-6.31-.594-8.826-.758-1.126-1.871-1.949-2.979-2.77-1.249-.923-2.492-1.844-3.22-3.188-1.4-2.587-4.128-4.12-6.716-5.518-6.773-3.657-14.553-7.42-21.852-4.978-2.843.95-5.299 2.774-7.694 4.578-3.977 2.995-8.237 6.51-8.994 11.43-6.506-2.91-14.924-.586-19.014 5.252-.936 1.335-1.654 2.807-2.372 4.278-.845 1.732-1.688 3.462-2.885 4.963a191.113 191.113 0 00-14.668-5.962c-2.203-.791-4.835-1.49-6.734-.12-1.522 1.097-1.99 3.251-1.542 5.074.447 1.823 1.64 3.368 2.919 4.742a32.99 32.99 0 0010.132 7.376h.001c1.149.547 2.329 1.109 3.094 2.114.844 1.108.896 2.963-.287 3.699-1.748 1.086-2.07 3.524-1.712 5.551.123.692.302 1.378.482 2.063.346 1.32.69 2.637.623 3.99zm47.457 10.838c-4.405 4.625-10.603 7.33-16.94 8.121-6.338.791-12.81-.237-18.864-2.271 1.629-.001 2.806-2.134 1.94-3.512-3.337 3.889-8.423 5.711-13.27 7.374-4.38 1.503-9.613.411-12.83-2.918-3.216-3.33-4.087-8.794-1.825-12.833.983-1.756 2.651-3.284 4.656-3.457 2.005-.172 4.164 1.491 3.978 3.494-1.116-.194-2.29.754-2.336 1.886 4.317-.465 8.374-2.939 10.766-6.562.825-1.251 1.452-2.613 2.08-3.976.421-.915.843-1.831 1.325-2.714 1.2-2.199 2.923-4.294 5.311-5.049 1.917-.606 3.988-.27 5.969.071l8.8 1.518c.658-.569-.408-1.48-1.26-1.658-2.75-.575-5.539-.929-8.328-1.283-2.586-.328-5.172-.657-7.728-1.161-5.313-1.048-10.652-2.965-14.52-6.756a11.855 11.855 0 005.438-6.986c.166-.59-.229-1.558-.707-1.176-.547 1.891-1.14 3.863-2.51 5.277-1.37 1.414-3.775 2.035-5.325.822-2.013-1.574-4.13-3.292-4.926-5.72-.796-2.429.463-5.69 3.002-5.988 1.139-.133 2.253.337 3.303.798l10.6 4.646c3.154 1.383 6.356 2.779 9.764 3.281 2.392.352 4.825.253 7.241.154l6.85-.283c.281-.011.568-.024.826-.134.688-.294.921-1.135 1.073-1.867 1.838-8.87 4.308-18.231 10.99-24.348a23.175 23.175 0 0110.675-5.524c3.904-.847 8.212-.598 11.574 1.561-5.639.415-11.115 2.793-15.268 6.63-1.745-1.862-4.992-.34-6.384 1.8-2.157 3.317-2.118 7.924.095 11.203 1.864 2.76 2.555 6.054 3.247 9.355.637 3.034 1.274 6.074 2.825 8.713 2.452 4.175 7.02 6.855 11.79 7.686 4.77.83 9.715-.037 14.249-1.738-5.074 5.062-13.18 6.812-19.891 4.296-.489-.183-.975-.388-1.462-.593h-.001c-1.541-.65-3.089-1.301-4.742-1.282a8.28 8.28 0 003.554 2.213 156.033 156.033 0 01-4.89 7.693c-.218.322-.467.665-.84.774-.416.121-.85-.086-1.229-.296a29.12 29.12 0 01-8.241-6.799l-4.593 5.588a40.659 40.659 0 008.165 7.569c-4.062 5.017-10.215 8.285-16.646 8.84 6.657.339 13.396-2.783 17.442-8.081a49.055 49.055 0 008.029 3.602zm21.053-49.132c1.471-1.604 2.016-3.896 1.891-6.068-.126-2.173-.857-4.263-1.666-6.283 2.108-.25 4.248.545 5.927 1.843 1.678 1.298 2.939 3.065 3.973 4.918 1.254 2.246 2.215 4.674 2.632 7.212.982 5.977-1.114 12.071-4.099 17.341-.579 1.023-1.203 2.039-2.049 2.856-.852.823-1.9 1.415-2.973 1.914a23.177 23.177 0 01-14.316 1.668c3.056-2.544 5.213-6.048 6.588-9.779 1.374-3.731 2.003-7.696 2.365-11.655l.002-.022c.091-.999.187-2.048.756-2.872.189-.273.422-.51.655-.747.106-.108.212-.215.314-.326zm-5.529 16.49c-1.318 3.084-3.361 5.916-6.13 7.808-.324.222-.672.436-1.063.481-.344.041-.689-.054-1.02-.159-2.354-.743-4.578-2.06-6.089-4.013-.548-.709-.995-1.49-1.394-2.292-2.907-5.841-3.192-12.928-.763-18.984.116-.29.282-.614.588-.675.395-.078.698.326.92.663 1.815 2.75 5.208 4.141 8.499 4.285 3.291.144 6.528-.79 9.649-1.846-.569 1.391-.713 2.906-.857 4.407v.002l-.055.564c-.334 3.337-.966 6.675-2.285 9.759zm-.67-28.65c1.684-.383 3.649-.488 4.936.664.415.372.724.849.978 1.346 1.594 3.114.97 7.216-1.478 9.716-2.831 2.89-7.31 3.366-11.34 3.023-1.446-.123-2.933-.346-4.168-1.109-1.597-.987-2.543-2.727-3.418-4.389 3.884-4.339 8.812-7.96 14.49-9.251zm13.62 52.381c-.528 1.334-1.062 2.687-1.235 4.111-.173 1.424.052 2.953.919 4.097-7.189.398-14.495-1.819-20.25-6.145a32.777 32.777 0 004.334-8.581c.4-1.206 1.927-1.709 3.166-1.43 1.141.257 2.099.989 3.034 1.703l.241.184c3.06 2.323 6.432 4.197 9.791 6.061zm-50.235 18.218c-1.134 1.277-2.489 2.336-3.873 3.336-2.89 2.086-6.04 3.982-9.551 4.588-5.147.888-10.707-1.332-13.827-5.52l11.225-4.187c.269-.1.547-.202.834-.186.162.009.317.056.473.102.104.031.208.062.314.082.36.068.724.009 1.089-.052.227-.037.455-.075.683-.081.84-.026 1.612.358 2.376.738l.001.001c.194.096.387.192.58.281 2.977 1.369 6.409 1.147 9.676.898zm-16.208-48.026c-.079-.177.005-.381.088-.556a52.39 52.39 0 018.983-13.171 28 28 0 014.932 12.062c.133.866-.011 2.064-.881 2.173-4.168.519-8.41.449-12.559-.209-.219-.035-.472-.097-.563-.299zm15.7-.297a37.308 37.308 0 00-5.215-13.314c2.18-1.147 4.756-1.166 7.219-1.159 1.556.005 3.254.06 4.439 1.067L106.3 97.33c-.522 1.54-1.05 3.124-.985 4.749l-1.943.031a.504.504 0 01-.205-.025c-.155-.064-.204-.257-.235-.422zm25.01 23.218c.516-.878 1.008-1.816 1.06-2.834a17.217 17.217 0 007.436 1.505c.4-.009.386.608.222.973-.496 1.105-.993 2.211-1.568 3.277-.589 1.094-1.259 2.143-1.927 3.192l-1.603 2.512c-.219.343-.446.695-.772.94-.874.658-2.123.341-3.121-.107a15.625 15.625 0 01-4.482-3.046 37.49 37.49 0 004.755-6.412zm-60.137 2.171c.77.777 1.274 1.773 1.764 2.751l-2.311.329c-.77.11-1.56.226-2.24.603-.663.366-1.174.954-1.623 1.563a15.104 15.104 0 00-2.929 8.867c-.002 1.144-1.354 1.96-2.46 1.67-1.106-.29-1.857-1.389-2.048-2.516-.191-1.127.078-2.28.416-3.372 1.188-3.845 3.314-7.475 6.459-9.985.6-.479 1.265-.928 2.024-1.05 1.08-.172 2.177.363 2.948 1.14zm97.07 6.435c.267.344.465.762.453 1.197-.015.563-.372 1.056-.755 1.467-2.232 2.391-5.661 3.205-8.909 3.589-.214.025-.439.048-.64-.03-.165-.065-.297-.192-.415-.324-.783-.882-1.094-2.114-1.03-3.291.063-1.178.47-2.312.976-3.377.106-.224.23-.46.447-.58.173-.096.38-.104.578-.109l3.931-.103c.968-.026 1.947-.05 2.894.15.947.199 1.875.647 2.47 1.411zm-43.81-37.142a37.513 37.513 0 01-3.552-9.44l.647-1.73a19.596 19.596 0 012.992-4.274c.482-.523 1.316-.58 1.98-.329.665.252 1.199.753 1.715 1.241l2.321 2.2c.069.064.141.135.164.227.043.174-.1.333-.23.456a16.824 16.824 0 00-2.827 3.483c-1.17 1.941-1.885 4.116-2.59 6.27l-.62 1.896zm5.932-16.669c4.725-2.53 9.894-4.912 15.224-4.343 2.786.298 5.452 1.407 7.773 2.977-6.649-1.71-14.061-.133-19.439 4.135-.831.66-2.078 1.376-2.818.615-.19-.195-.315-.468-.436-.735-.194-.427-.379-.836-.814-.876-.414-.038-.599-.6-.423-.977s.566-.6.933-.796zm-12.982 46.29c.933.896 1.96 1.687 2.985 2.477l4.14 3.188a104.627 104.627 0 00-3.741 3.463 28.353 28.353 0 01-7.604-6.588 65.368 65.368 0 003.331-3.747c.166.476.526.857.889 1.207zm-26.618-8.624c-2.18 1.703-4.434 3.495-5.633 5.988-.234.487-.427 1-.62 1.512-.411 1.088-.82 2.172-1.617 3-.353-.104-.492-.52-.578-.878l-.83-3.45c-.112-.465-.224-.944-.16-1.418.063-.473.296-.903.524-1.321l2.434-4.448c.054-.099.11-.2.198-.273.215-.179.534-.122.805-.055l5.477 1.343zm35.413 15.278a13.786 13.786 0 005.348 3.402c.377-.355 1.105-.159 1.254.336-.693.9-1.455 1.747-2.275 2.532-.366.351-.953.277-1.447.163a23.52 23.52 0 01-6.862-2.771c-.142-.085-.302-.207-.288-.372.009-.111.097-.197.179-.273l2.979-2.744c.313-.287.816-.577 1.112-.273zm38.041-38.334c-.028.336-.075.711-.338.923a16.406 16.406 0 00-1.891-7.615 12.807 12.807 0 00-.736-1.234l-.105-.153c-.272-.393-.551-.795-.617-1.264l3.193 3.335c.293.307.596.627.734 1.029.134.387.102.81.069 1.217l-.309 3.762zm-3.669-4.239l-.723-.91c-.795-1.004-1.771-2.098-3.051-2.1-.743 0-1.426.38-2.07.75l-1.001.573c-.274.157-.555.32-.748.57-.556.72-.15 1.77.376 2.512.363.513.799 1.006 1.378 1.253.748.32 1.609.178 2.393-.038a13.749 13.749 0 003.084-1.27c.311-.174.654-.43.638-.786-.009-.21-.145-.39-.276-.554zm-6.316.704c-.125-.198-.253-.41-.255-.644-.004-.457.452-.764.854-.983l1.427-.778c.215-.118.44-.239.685-.255.245-.017.518.102.601.333a2.256 2.256 0 001.546 1.406c.228.057.301.372.193.581-.107.209-.328.33-.538.435-.752.373-1.539.678-2.346.908-.324.093-.666.173-.994.095-.535-.127-.88-.632-1.173-1.098zm-10.152 7.045c-1.415.165-1.684 2.716-1.027 4.077.135.28.347.569.655.608.528.067.819-.584.936-1.103l.003-.012c.153-.683.84-3.734-.567-3.57zm-7.299 3.347c.283-.66.378-1.4.269-2.11-.05-.33-.149-.664-.37-.915-.22-.25-.584-.396-.898-.283-.285.102-.463.38-.598.65a5.54 5.54 0 00-.537 3.108c.059.493.679.762 1.15.606.471-.156.789-.6.984-1.056zm4.172-1.51c.22-.183.497.148.586.419.293.891.536 1.798.727 2.717.12.58.22 1.183.091 1.761-.181.816-.801 1.479-1.52 1.904-.72.425-1.538.645-2.346.861-.213.056-.481.097-.619-.075-.117-.147-.059-.376.074-.508.131-.129.312-.189.487-.246l.011-.004c1.258-.413 2.603-1.159 2.896-2.451.161-.711-.035-1.424-.232-2.141-.179-.652-.359-1.308-.27-1.965.013-.1.038-.208.115-.272zm-8.788-2.906c-.332-.46-.066-1.157.414-1.456.481-.3 1.088-.296 1.65-.223.67.086 1.329.257 1.958.506.133.053.277.12.336.252.109.243-.173.51-.439.51-.215-.001-.409-.104-.601-.206-.047-.025-.093-.05-.14-.073-1.049-.52-2.44-.219-3.178.69zm12.088-.158a2.022 2.022 0 011.446.314c.175.118.425-.08.426-.291.001-.212-.156-.39-.322-.52a2.256 2.256 0 00-1.257-.475c-.293-.017-.618.04-.806.265-.189.225-.132.647.151.725a.697.697 0 00.311-.01l.016-.002.035-.006zm-6.186 12.95c.14-.079.325.059.346.219.021.16-.07.312-.174.435-.523.617-1.423.807-2.219.662-.795-.144-1.508-.572-2.179-1.023a26.069 26.069 0 01-.932-.657c-.317-.234-.655-.521-.692-.913-.038-.392.464-.787.751-.517.705.664 1.426 1.339 2.303 1.75.877.41 1.952.52 2.796.044zm-15.098 3.144a40.508 40.508 0 01-3.515-20.548c.011-.12.026-.247.105-.338a.304.304 0 01.446.01c-.038 3.85-.074 7.724.555 11.523.628 3.798 1.963 7.556 4.399 10.537l.22.266.001.001c.419.502.842 1.009 1.079 1.615-1.584-.03-2.627-1.626-3.29-3.066zm2.882-28.834a.588.588 0 00-.191-.143c-.212-.091-.461.003-.646.14-.74.547-.742 1.827-.006 2.378.36-.306.729-.625.94-1.047.21-.423.223-.982-.097-1.328zm6.375 6.743a9.044 9.044 0 002.673 1.5c3.122 1.106 6.63.411 9.642-.966a1.268 1.268 0 011.4.265 11.592 11.592 0 01-6.679 2.135c-.524 0-1.047-.036-1.569-.081-1.068-.094-2.144-.23-3.148-.604s-1.942-1.007-2.511-1.915l.192-.334zm33.996 42.074c-.031.107.054.208.133.286l1.186 1.178c.129-.339-.016-.733-.265-.997-.248-.263-.584-.423-.912-.578a.16.16 0 00-.142.111zm128.663-41.041c3.55 1.23 6.894-1.972 9.954-4.153 4.733-3.375 10.909-4.65 16.592-3.429.943.203 1.931.507 2.552 1.245.568.675.729 1.596.821 2.473.559 5.369-.783 10.917-3.736 15.436-1.436 2.199-3.236 4.156-4.52 6.447-1.285 2.291-2.018 5.089-1.103 7.551 5.44 14.635 3.176 31.897-5.855 44.634-9.031 12.736-24.572 20.584-40.183 20.293-7.984-.15-15.805-2.281-23.327-4.96-3.282-1.17-6.89-2.452-10.148-1.218a68.828 68.828 0 01-18.537 4.214c-1.572.134-3.215.202-4.665-.418-2.171-.929-3.482-3.283-3.731-5.632-.249-2.348.4-4.699 1.22-6.913 2.474-6.68 10.153-17.115 14.801-19.519-.376-8.112-.335-16.319 1.419-24.247 1.754-7.929 5.333-15.623 11.204-21.233 2.425-2.317 5.2-4.246 8.107-5.92 14.702-8.465 33.106-10.207 49.135-4.651zm-22.389-.659c-11.243.263-22.187 4.78-30.975 11.796-2.581 2.06-5.006 4.348-6.943 7.022-1.527 2.108-2.734 4.434-3.743 6.834-5.986 14.237-4.619 31.343 3.551 44.449.178.286.383.589.701.7.392.137.814-.063 1.181-.258 25.661-13.676 48.502-32.616 66.692-55.302.433-.54.889-1.168.795-1.854-.07-.515-.437-.933-.796-1.309-7.761-8.137-19.221-12.341-30.463-12.078zm15.718 84.992c12.188-5.723 21.446-17.03 25.405-29.9.896-2.914 1.541-5.927 1.604-8.975.053-2.564-.305-5.116-.661-7.655l-1.552-11.044c-.137-.976-1.078-2.264-1.765-1.557a460.796 460.796 0 01-62.143 53.48c-.741.53-1.555 1.186-1.595 2.096-.047 1.053.958 1.816 1.871 2.343 11.665 6.726 26.647 6.934 38.836 1.212zm-75.183-1.499c.887 1.422 2.809 1.714 4.485 1.76 8.789.243 17.485-2.332 25.349-6.266 7.864-3.933 14.981-9.195 21.898-14.624 9.225-7.24 18.175-14.829 26.897-22.668 10.803-9.709 21.417-20.007 28.509-32.682 1.372-2.452 2.638-5.14 2.424-7.942-.215-2.8-2.449-5.629-5.257-5.52-5.957.233-11.815 2.524-16.349 6.394-.902.77-.265 2.408.845 2.825 1.11.417 2.347.003 3.432-.476s2.214-1.039 3.393-.908c1.8.2 3.078 2.043 3.186 3.851.107 1.809-.693 3.546-1.635 5.093-1.743 2.863-4.02 5.359-6.321 7.797a310.8 310.8 0 01-69.816 55.332c-2.321 1.347-4.668 2.67-7.166 3.651-1.31.515-2.812.929-4.09.34-2.096-.966-2.264-3.909-1.635-6.13a16.416 16.416 0 015.729-8.463l-1.56-4.394c-6.775 4.327-11.53 11.689-12.689 19.644-.167 1.148-.242 2.402.371 3.386zm19.265-10.051c.048-.151-.04-.309-.124-.443l-2.626-4.172c-.396-.629-1.162-1.342-1.756-.895a11.364 11.364 0 00-4.231 6.631c-.111.517-.175 1.094.106 1.541.524.832 1.775.647 2.701.315a30.8 30.8 0 005.663-2.709c.11-.067.228-.145.267-.268zm76.141-66.2c-.088-.362-.518-.519-.889-.535-1.128-.049-2.306.878-2.235 2.005.071 1.126 1.746 1.836 2.446.95.211-.268.3-.608.384-.939l.251-.981c.041-.164.083-.336.043-.5z" fill="#00160A"/></svg>