<svg width="61" height="60" fill="none" xmlns="http://www.w3.org/2000/svg"><path d="M48.53 4.423H17.789a3.741 3.741 0 00-3.737 3.737v5.29h-3.736a.896.896 0 100 1.794h3.736v6.202h-3.736a.896.896 0 100 1.794h3.736v6.202h-3.736a.896.896 0 100 1.793h3.736v6.202h-3.736a.897.897 0 100 1.793h3.736v5.604h-3.736a.897.897 0 100 1.793h3.736v6.196a3.741 3.741 0 003.737 3.737h30.743a3.741 3.741 0 003.737-3.737V8.16a3.742 3.742 0 00-3.737-3.737zm-32.685 48.4v-6.196h3.595a.897.897 0 100-1.793h-3.595V39.23h3.595a.897.897 0 100-1.793h-3.595v-6.202h3.595a.897.897 0 100-1.794h-3.595V23.24h3.595a.896.896 0 100-1.794h-3.595v-6.202h3.595a.896.896 0 100-1.794h-3.595V8.16c0-1.071.872-1.943 1.943-1.943h23.438v48.55H17.788a1.945 1.945 0 01-1.943-1.944zm34.629 0a1.945 1.945 0 01-1.943 1.944H43.02V6.217h5.51c1.072 0 1.944.872 1.944 1.943v44.663z" fill="#EE58B6"/></svg>