<svg width="61" height="60" fill="none" xmlns="http://www.w3.org/2000/svg"><path d="M29.95 3.933c-14.315 0-25.961 11.646-25.961 25.961 0 14.316 11.646 25.961 25.961 25.961 14.315 0 25.961-11.646 25.961-25.96 0-14.316-11.646-25.962-25.961-25.962zm-.897 50.107C16.44 53.576 6.268 43.404 5.805 30.79h7.144c.452 8.676 7.429 15.652 16.104 16.104v7.145zm0-8.943c-7.685-.449-13.857-6.62-14.306-14.306h7.526a7.743 7.743 0 006.78 6.78v7.526zm0-9.339a5.943 5.943 0 01-4.967-4.967h4.967v4.967zm-4.968-6.76a5.943 5.943 0 014.967-4.968v4.967h-4.967zm4.968-6.78a7.743 7.743 0 00-6.78 6.78h-7.526c.45-7.686 6.62-13.858 14.306-14.306v7.525zm0-9.324c-8.675.452-15.652 7.429-16.104 16.103H5.805C6.268 16.384 16.439 6.213 29.053 5.75v7.145zm1.793-7.145c12.614.464 22.785 10.635 23.248 23.248H46.95c-.453-8.674-7.429-15.65-16.104-16.103V5.749zm4.968 25.042a5.943 5.943 0 01-4.967 4.967v-4.967h4.967zm-4.967-1.794V24.03a5.943 5.943 0 014.967 4.967h-4.967zm6.78 1.794h7.526c-.449 7.685-6.62 13.857-14.306 14.306V37.57a7.743 7.743 0 006.78-6.78zm-6.78-16.1c7.685.45 13.856 6.621 14.304 14.306h-7.525a7.743 7.743 0 00-6.78-6.78v-7.525zm0 39.348v-7.144c8.675-.453 15.65-7.43 16.103-16.105h7.145C53.63 43.404 43.46 53.576 30.847 54.04z" fill="#EE58B6"/></svg>